<?xml version="1.0" encoding="UTF-8" standalone="no"?>
<!DOCTYPE svg PUBLIC "-//W3C//DTD SVG 1.1//EN" "http://www.w3.org/Graphics/SVG/1.1/DTD/svg11.dtd">
<svg xmlns="http://www.w3.org/2000/svg" version="1.1" viewBox="0 0 499 500">
<path fill="#ffffff" d="
  M 265.06 162.26
  L 294.46 111.05
  A 0.97 0.93 -74.4 0 1 295.28 110.56
  L 305.57 110.51
  A 0.95 0.93 89.1 0 1 306.51 111.44
  Q 306.64 118.50 306.65 126.00
  Q 306.75 238.38 306.75 351.10
  A 0.65 0.64 90.0 0 1 306.11 351.75
  L 296.31 351.70
  A 0.83 0.81 -90.0 0 1 295.50 350.87
  Q 295.54 328.88 295.48 308.50
  Q 295.48 308.24 295.28 308.25
  A 0.34 0.26 -84.4 0 0 295.02 308.53
  Q 292.05 323.39 283.19 333.44
  Q 267.27 351.48 241.75 351.62
  Q 217.00 351.75 191.76 351.75
  A 0.82 0.82 -89.7 0 1 190.94 350.92
  Q 191.34 297.90 190.20 244.50
  Q 189.62 217.38 189.70 190.26
  Q 189.73 179.10 189.68 170.25
  Q 189.52 140.79 189.81 111.32
  A 0.53 0.50 -90.0 0 1 190.31 110.79
  L 200.69 110.78
  A 0.94 0.82 73.1 0 1 201.44 111.25
  L 231.97 163.97
  Q 232.59 165.03 233.01 163.88
  L 243.96 134.23
  A 1.35 1.18 -78.2 0 1 245.13 133.35
  L 253.44 133.49
  A 0.84 0.68 78.2 0 1 254.11 134.03
  L 264.63 162.21
  Q 264.81 162.70 265.06 162.26
  Z
  M 294.95 130.23
  L 269.86 173.72
  A 2.98 2.95 -40.3 0 0 269.64 176.21
  L 289.05 229.05
  A 0.69 0.66 78.8 0 0 289.69 229.50
  L 294.93 229.45
  A 0.52 0.51 90.0 0 0 295.44 228.93
  L 295.50 130.37
  Q 295.50 129.28 294.95 130.23
  Z
  M 202.19 228.82
  A 0.63 0.61 -89.5 0 0 202.79 229.45
  L 208.48 229.50
  A 0.73 0.71 -79.2 0 0 209.15 229.03
  L 228.04 177.58
  A 2.54 2.53 -50.1 0 0 227.85 175.45
  L 202.44 132.00
  Q 202.19 131.56 202.19 132.06
  L 202.19 228.82
  Z
  M 256.31 177.81
  Q 258.41 174.09 259.05 172.71
  A 1.21 1.20 47.8 0 0 259.09 171.79
  L 249.18 144.47
  Q 248.93 143.79 248.69 144.47
  Q 244.20 157.00 239.92 169.09
  Q 238.67 172.64 238.64 172.91
  Q 238.43 174.84 239.69 177.06
  Q 243.70 184.15 247.80 191.16
  A 0.47 0.47 -44.8 0 0 248.61 191.16
  Q 252.62 184.35 256.31 177.81
  Z
  M 255.28 227.75
  L 278.51 227.81
  A 0.50 0.49 79.8 0 0 278.96 227.14
  L 263.95 185.42
  Q 263.68 184.67 263.29 185.35
  L 254.86 199.88
  A 4.98 4.28 63.8 0 0 254.25 202.24
  L 254.25 226.68
  A 1.07 1.03 90.0 0 0 255.28 227.75
  Z
  M 233.73 186.58
  L 219.12 227.35
  A 0.30 0.30 -80.3 0 0 219.40 227.75
  L 242.44 227.75
  A 0.56 0.56 0.0 0 0 243.00 227.19
  L 243.00 202.92
  Q 243.00 201.82 242.50 200.95
  L 234.21 186.53
  Q 233.93 186.03 233.73 186.58
  Z
  M 295.46 273.50
  Q 295.80 272.17 295.00 271.21
  L 285.85 246.75
  A 1.54 1.54 -9.9 0 0 284.42 245.75
  L 272.81 245.69
  Q 272.32 245.69 272.72 245.98
  Q 290.35 258.83 295.14 280.26
  Q 295.31 281.02 295.33 280.26
  L 295.46 273.50
  Z
  M 211.00 343.21
  L 215.00 343.21
  L 215.25 343.21
  L 242.75 343.04
  Q 243.32 294.74 242.82 246.44
  A 0.53 0.52 -89.4 0 0 242.32 245.92
  Q 227.81 245.40 213.31 246.04
  A 1.02 0.98 15.5 0 0 212.52 246.47
  Q 210.54 249.35 210.50 252.25
  Q 209.99 285.10 210.31 341.62
  Q 210.31 341.79 210.18 342.49
  Q 210.04 343.32 211.00 343.21
  Z
  M 274.36 258.89
  Q 266.14 250.51 254.75 247.50
  A 0.40 0.39 7.4 0 0 254.25 247.88
  L 254.25 340.53
  A 0.65 0.65 -8.3 0 0 255.09 341.15
  Q 267.46 337.34 275.68 328.11
  Q 282.05 320.94 285.31 310.77
  Q 291.55 291.28 282.81 271.37
  Q 279.72 264.35 274.36 258.89
  Z"
/>
</svg>
